<svg width="19" height="19" viewBox="0 0 19 19" fill="none" xmlns="http://www.w3.org/2000/svg">
<path d="M13.5 7.66667C14.0833 7.08333 14.9083 7.66667 15.5833 7.66667C16.1359 7.66667 16.6658 7.44717 17.0565 7.05647C17.4472 6.66577 17.6667 6.13587 17.6667 5.58333C17.6667 5.0308 17.4472 4.50089 17.0565 4.11019C16.6658 3.71949 16.1359 3.5 15.5833 3.5C15.4728 3.5 15.3668 3.4561 15.2887 3.37796C15.2106 3.29982 15.1667 3.19384 15.1667 3.08333C15.1667 2.5308 14.9472 2.00089 14.5565 1.61019C14.1658 1.21949 13.6359 1 13.0833 1C12.5308 1 12.0009 1.21949 11.6102 1.61019C11.2195 2.00089 11 2.5308 11 3.08333C11 3.75833 11.5833 4.58333 11 5.16667L5.16667 11C4.58333 11.5833 3.75833 11 3.08333 11C2.5308 11 2.00089 11.2195 1.61019 11.6102C1.21949 12.0009 1 12.5308 1 13.0833C1 13.6359 1.21949 14.1658 1.61019 14.5565C2.00089 14.9472 2.5308 15.1667 3.08333 15.1667C3.31667 15.1667 3.5 15.35 3.5 15.5833C3.5 16.1359 3.71949 16.6658 4.11019 17.0565C4.50089 17.4472 5.0308 17.6667 5.58333 17.6667C6.13587 17.6667 6.66577 17.4472 7.05647 17.0565C7.44717 16.6658 7.66667 16.1359 7.66667 15.5833C7.66667 14.9083 7.08333 14.0833 7.66667 13.5L13.5 7.66667Z" stroke="#1D4ED8" stroke-width="1.67" stroke-linecap="round" stroke-linejoin="round"/>
</svg>
