<svg width="58" height="58" viewBox="0 0 58 58" fill="none" xmlns="http://www.w3.org/2000/svg">
<g clip-path="url(#clip0_60_92)">
<path d="M24.7237 36.7629L20.5181 44.5969" stroke="#999999" stroke-width="3.54769" stroke-linecap="round" stroke-linejoin="round"/>
<path d="M13.756 30.8751L35.691 42.6509L37.1713 39.8934C37.484 39.3102 37.6278 38.6514 37.5865 37.991C37.5453 37.3306 37.3206 36.6949 36.9378 36.1552L34.906 33.2478C34.5232 32.7081 34.2985 32.0724 34.2573 31.412C34.216 30.7516 34.3598 30.0928 34.6725 29.5096L38.6763 22.0517L40.243 22.8929C41.0741 23.339 42.0484 23.4368 42.9515 23.1646C43.8547 22.8924 44.6127 22.2726 45.0589 21.4416C45.505 20.6105 45.6028 19.6362 45.3306 18.7331C45.0584 17.8299 44.4386 17.0719 43.6076 16.6257L31.0733 9.89668C30.2422 9.45052 29.2679 9.35277 28.3648 9.62495C27.4617 9.89712 26.7036 10.5169 26.2575 11.348C25.8113 12.1791 25.7136 13.1533 25.9857 14.0565C26.2579 14.9596 26.8777 15.7177 27.7088 16.1638L29.2756 17.005L25.2718 24.4628C24.9585 25.0457 24.4888 25.5295 23.9156 25.86C23.3424 26.1905 22.6884 26.3546 22.027 26.3337L18.4811 26.2466C17.8198 26.2258 17.1657 26.3898 16.5925 26.7203C16.0193 27.0508 15.5496 27.5347 15.2364 28.1175L13.756 30.8751Z" fill="#999999" stroke="#999999" stroke-width="3.54769" stroke-linecap="round" stroke-linejoin="round"/>
</g>
<defs>
<clipPath id="clip0_60_92">
<rect width="42.679" height="42.679" fill="white" transform="translate(20.2214 0.0341797) rotate(28.2292)"/>
</clipPath>
</defs>
</svg>
